<svg width="290" height="290" viewBox="0 0 290 290" fill="none" xmlns="http://www.w3.org/2000/svg">
<g filter="url(#filter0_d_96_52)">
<rect width="280" height="280" fill="#7C5E99"/>
</g>
<path d="M35 201V17L177 17.06V57H217L218 240H74V201H35Z" fill="black"/>
<path d="M242 77L177 17L35 201L88.5 260H95H99H243L242 77Z" fill="black"/>
<path d="M166.5 27H45V189.5H85.5V148.5H126V108H85.5V67.5H166.5V27Z" fill="#F25A70"/>
<path d="M166.5 27H45V189.5" stroke="white" stroke-width="5"/>
<path d="M207.175 67.5H166.5V189.5H85.5V230H207.175V67.5Z" fill="#F25A70"/>
<path d="M207 67.5V230H85.5" stroke="white" stroke-width="5"/>
<path d="M178.696 15.163L177.977 14.5H177H35H32.5V17V201V201.965L33.148 202.679L86.648 261.679L87.3922 262.5H88.5H243H245.514L245.5 259.986L244.5 76.9863L244.494 75.8999L243.696 75.163L178.696 15.163Z" stroke="white" stroke-width="5"/>
<path d="M206.5 229.5L245.5 262.5" stroke="white" stroke-width="5"/>
<defs>
<filter id="filter0_d_96_52" x="0" y="0" width="290" height="290" filterUnits="userSpaceOnUse" color-interpolation-filters="sRGB">
<feFlood flood-opacity="0" result="BackgroundImageFix"/>
<feColorMatrix in="SourceAlpha" type="matrix" values="0 0 0 0 0 0 0 0 0 0 0 0 0 0 0 0 0 0 127 0" result="hardAlpha"/>
<feOffset dx="10" dy="10"/>
<feColorMatrix type="matrix" values="0 0 0 0 1 0 0 0 0 1 0 0 0 0 1 0 0 0 1 0"/>
<feBlend mode="normal" in2="BackgroundImageFix" result="effect1_dropShadow_96_52"/>
<feBlend mode="normal" in="SourceGraphic" in2="effect1_dropShadow_96_52" result="shape"/>
</filter>
</defs>
</svg>
